<svg width="180" height="180" fill="none" xmlns="http://www.w3.org/2000/svg"><path fill="#fff" d="M0 0h180v180H0z"/><path fill-rule="evenodd" clip-rule="evenodd" d="M102.858 35.089c12.166 13.242 38.707 1.25 30.094-16.402-5.752-11.85-14.369-9.101-20.521-6.065-12.315 5.928-14.645 16.818-9.573 22.467ZM55.48 40.887c11.18 12.163 35.549 1.15 27.631-15.066-5.275-10.89-13.192-8.357-18.847-5.571-11.3 5.441-13.442 15.455-8.784 20.637Zm70.54 113.525c-7.247 11.609-26.011 17.231-44.038 15.169-25.825-2.81-41.803-25.847-35.672-60.307 6.691-37.272 60.197-61.056 77.294-34.46 12.447 19.291-7.247 53.375-38.643 65.925l-1.673.56c6.501 17.231 21.923 24.912 36.784 7.864 7.061-7.864 12.076-4.492 5.948 5.249ZM101.308 76.69c5.389 8.614-1.112 39.142-20.623 53.002-.556-4.313-.556-8.991-.186-13.86C84.4 81.745 95.55 67.702 101.308 76.69Z" fill="#000"/></svg>